# xmcd
#
# Track frame offsets:
#	150
#	15690
#	30893
#	44311
#	57960
#	73480
#	90001
#	108235
#	124713
#	136503
#	156280
#	173117
#	190588
#	215199
#	231040
#	248178
#	263293
#	280102
#	298316
#	310831
#	324978
#
# Disc length: 4510 seconds
#
# Revision: 0
# Processed by: cddbd v1.5.2PL0 Copyright (c) Steve Scherf et al.
# Submitted via: dBpowerAMP V4.0
#
DISCID=1b119c15
DTITLE=FERNANDO E SOROCABA - BOLA DE CRISTAL
DYEAR=2011
DGENRE=SERTANEJO
TTITLE0=BOLA DE CRISTAL
TTITLE1=A CASA CAIU
TTITLE2=TO PASSANDO MAL
TTITLE3=TEUS SEGREDOS
TTITLE4=CELEBRIDADE
TTITLE5=DELEGADA
TTITLE6=ATE O FINAL
TTITLE7=JOGA NO LIXO
TTITLE8=VE SE PARA COM ESSA MARRA
TTITLE9=MADRI
TTITLE10=DESORIENTADO
TTITLE11=BOCA À BOCA
TTITLE12=QUE RAIVA QUE DÁ/DA COR DO PECADO
TTITLE13=VACILEI
TTITLE14=6 JANEIRO DE 2003
TTITLE15=POR QUE TA COMIGO
TTITLE16=ME ENGANA
TTITLE17=COPINHO - HENRIQUE E DIEGO
TTITLE18=VAI- HENRIQUE E DIEGO
TTITLE19=AI QUE DÓ - THAME ETHIAGO
TTITLE20=PERDEU - THAME E THIAGO
EXTD=Bola de Cristal
EXTT0=
EXTT1=
EXTT2=
EXTT3=
EXTT4=
EXTT5=
EXTT6=
EXTT7=
EXTT8=
EXTT9=
EXTT10=
EXTT11=
EXTT12=
EXTT13=
EXTT14=
EXTT15=
EXTT16=
EXTT17=
EXTT18=
EXTT19=
EXTT20=
PLAYORDER=
